<svg preserveAspectRatio="none" width="100%" height="100%" overflow="visible" style="display: block;" viewBox="0 0 60 60" fill="none" xmlns="http://www.w3.org/2000/svg">
<g id="icon">
<circle id="Ellipse 23" opacity="0.3" cx="30" cy="30" r="29.5" stroke="var(--stroke-0, white)"/>
<path id="Vector" d="M30.003 18H29.997C23.3805 18 18 23.382 18 30C18 32.625 18.846 35.058 20.2845 37.0335L18.789 41.4915L23.4015 40.017C25.299 41.274 27.5625 42 30.003 42C36.6195 42 42 36.6165 42 30C42 23.3835 36.6195 18 30.003 18ZM36.9855 34.9455C36.696 35.763 35.547 36.441 34.6305 36.639C34.0035 36.7725 33.1845 36.879 30.4275 35.736C26.901 34.275 24.63 30.6915 24.453 30.459C24.2835 30.2265 23.028 28.5615 23.028 26.8395C23.028 25.1175 23.9025 24.279 24.255 23.919C24.5445 23.6235 25.023 23.4885 25.482 23.4885C25.6305 23.4885 25.764 23.496 25.884 23.502C26.2365 23.517 26.4135 23.538 26.646 24.0945C26.9355 24.792 27.6405 26.514 27.7245 26.691C27.81 26.868 27.8955 27.108 27.7755 27.3405C27.663 27.5805 27.564 27.687 27.387 27.891C27.21 28.095 27.042 28.251 26.865 28.47C26.703 28.6605 26.52 28.8645 26.724 29.217C26.928 29.562 27.633 30.7125 28.671 31.6365C30.0105 32.829 31.0965 33.21 31.485 33.372C31.7745 33.492 32.1195 33.4635 32.331 33.2385C32.5995 32.949 32.931 32.469 33.2685 31.9965C33.5085 31.6575 33.8115 31.6155 34.1295 31.7355C34.4535 31.848 36.168 32.6955 36.5205 32.871C36.873 33.048 37.1055 33.132 37.191 33.2805C37.275 33.429 37.275 34.1265 36.9855 34.9455Z" fill="var(--fill-0, #BB0000)"/>
</g>
</svg>
