<svg preserveAspectRatio="none" width="100%" height="100%" overflow="visible" style="display: block;" viewBox="0 0 160 24" fill="none" xmlns="http://www.w3.org/2000/svg">
<g id="social icons">
<path id="Vector" d="M12 0C5.38323 0 0 5.38323 0 12C0 18.6163 5.38323 24 12 24C18.6163 24 24 18.6163 24 12C24 5.38323 18.6173 0 12 0ZM14.9843 12.4225H13.032V19.381H10.139V12.4225H8.76388V9.9631H10.139V8.37235C10.139 7.23306 10.6804 5.45283 13.0586 5.45283L15.2023 5.46105V7.84838H13.6463C13.3931 7.84838 13.0329 7.97503 13.0329 8.51833V9.96359H15.2371L14.9843 12.4225Z" fill="var(--fill-0, white)"/>
<path id="Subtract" d="M46 0C52.6272 0 58 5.37281 58 12C58 18.6272 52.6272 24 46 24C39.3728 24 34 18.6272 34 12C34 5.37281 39.3728 2.88428e-07 46 0ZM44.4873 12.7832L39.1006 19.0449H40.3174L45.0283 13.5693L48.791 19.0449H52.8994L47.3125 10.9141L52.4502 4.94238H51.2324L46.7725 10.1279L43.209 4.94238H39.1006L44.4873 12.7832ZM51.2334 18.1699H49.3633L40.7568 5.85938H42.626L51.2334 18.1699Z" fill="var(--fill-0, white)"/>
<path id="Vector_2" d="M80 0C73.3736 0 68 5.37361 68 12C68 18.6264 73.3736 24 80 24C86.6264 24 92 18.6264 92 12C92 5.37361 86.6264 0 80 0ZM76.513 18.1406H73.5904V9.34809H76.5129L76.513 18.1406ZM75.0517 8.14744H75.0327C74.052 8.14744 73.4177 7.47234 73.4177 6.62859C73.4177 5.76581 74.0714 5.10938 75.0712 5.10938C76.0709 5.10938 76.6862 5.76581 76.7052 6.62859C76.7052 7.47234 76.0709 8.14748 75.0517 8.14748V8.14744ZM87.0511 18.1406H84.1289V13.4368C84.1289 12.2547 83.7058 11.4485 82.6483 11.4485C81.841 11.4485 81.3602 11.9923 81.1489 12.5173C81.0716 12.7051 81.0527 12.9677 81.0527 13.2305V18.1406H78.1303C78.1303 18.1406 78.1686 10.173 78.1303 9.34809H81.0527V10.593C81.4411 9.99394 82.136 9.14175 83.6865 9.14175C85.6093 9.14175 87.0511 10.3984 87.0511 13.099V18.1406Z" fill="var(--fill-0, white)"/>
<g id="Vector_3">
<path d="M112.336 13.9358L115.664 12.0047L112.336 10.0642V13.9358Z" fill="var(--fill-0, white)"/>
<path d="M114 0C111.627 0 109.307 0.703788 107.333 2.02236C105.36 3.34094 103.822 5.21508 102.913 7.4078C102.005 9.60051 101.768 12.0133 102.231 14.3411C102.694 16.6689 103.836 18.807 105.515 20.4853C107.193 22.1635 109.331 23.3064 111.659 23.7694C113.987 24.2324 116.399 23.9948 118.592 23.0865C120.785 22.1783 122.659 20.6402 123.978 18.6668C125.296 16.6934 126 14.3734 126 12C126 8.8174 124.736 5.76515 122.485 3.51472C120.235 1.26428 117.183 0 114 0ZM120.316 14.1237C120.316 14.4375 120.254 14.7484 120.134 15.0384C120.014 15.3284 119.838 15.5919 119.617 15.8139C119.395 16.0359 119.131 16.2121 118.841 16.3322C118.551 16.4524 118.241 16.5142 117.927 16.5142H110.073C109.759 16.5142 109.449 16.4524 109.159 16.3322C108.869 16.2121 108.605 16.0359 108.383 15.8139C108.162 15.5919 107.986 15.3284 107.866 15.0384C107.746 14.7484 107.684 14.4375 107.684 14.1237V9.87631C107.684 9.56246 107.746 9.25164 107.866 8.96162C107.986 8.6716 108.162 8.40805 108.383 8.18605C108.605 7.96405 108.869 7.78794 109.159 7.66779C109.449 7.54763 109.759 7.48579 110.073 7.48579H117.927C118.241 7.48579 118.551 7.54763 118.841 7.66779C119.131 7.78794 119.395 7.96405 119.617 8.18605C119.838 8.40805 120.014 8.6716 120.134 8.96162C120.254 9.25164 120.316 9.56246 120.316 9.87631V14.1237Z" fill="var(--fill-0, white)"/>
</g>
<g id="Vector_4">
<path d="M150.297 12C150.297 13.2686 149.269 14.2969 148 14.2969C146.731 14.2969 145.703 13.2685 145.703 12C145.703 10.7315 146.731 9.70312 148 9.70312C149.269 9.70312 150.297 10.7315 150.297 12Z" fill="var(--fill-0, white)"/>
<path d="M153.372 7.93617C153.261 7.63687 153.085 7.36612 152.856 7.14384C152.634 6.91495 152.363 6.73882 152.064 6.62841C151.821 6.53414 151.456 6.42188 150.784 6.39131C150.058 6.35817 149.84 6.351 148 6.351C146.16 6.351 145.942 6.35798 145.216 6.39112C144.544 6.42187 144.179 6.53409 143.936 6.62841C143.637 6.73877 143.366 6.91491 143.144 7.14384C142.915 7.36613 142.739 7.63687 142.628 7.93617C142.534 8.17898 142.422 8.54391 142.391 9.21572C142.358 9.94228 142.351 10.1602 142.351 12.0002C142.351 13.84 142.358 14.0579 142.391 14.7847C142.422 15.4565 142.534 15.8213 142.628 16.064C142.739 16.3633 142.915 16.634 143.144 16.8563C143.366 17.0852 143.637 17.2614 143.936 17.3718C144.179 17.4662 144.544 17.5785 145.216 17.6091C145.942 17.6422 146.16 17.6492 148 17.6492C149.84 17.6492 150.058 17.6422 150.784 17.6091C151.456 17.5785 151.821 17.4662 152.064 17.3718C152.361 17.2571 152.631 17.0816 152.856 16.8563C153.081 16.6311 153.257 16.3612 153.372 16.064C153.466 15.8212 153.578 15.4565 153.609 14.7847C153.642 14.0579 153.649 13.84 153.649 12.0002C153.649 10.1602 153.642 9.94228 153.609 9.21572C153.578 8.54391 153.466 8.17894 153.372 7.93617ZM148 15.5384C146.046 15.5384 144.462 13.9543 144.462 12C144.462 10.0457 146.046 8.46169 148 8.46169C149.954 8.46169 151.538 10.0457 151.538 12C151.538 13.9543 149.954 15.5384 148 15.5384ZM151.678 9.14869C151.222 9.14869 150.851 8.77842 150.851 8.32181C150.851 7.8652 151.222 7.49489 151.678 7.49489C152.135 7.49489 152.505 7.86511 152.505 8.32177C152.505 8.77842 152.135 9.14869 151.678 9.14869Z" fill="var(--fill-0, white)"/>
<path d="M148 0C141.374 0 136 5.37361 136 12C136 18.6264 141.374 24 148 24C154.626 24 160 18.6264 160 12C160 5.37361 154.626 0 148 0ZM154.849 14.8409C154.816 15.5744 154.699 16.0752 154.529 16.5135C154.352 16.9713 154.081 17.387 153.734 17.734C153.387 18.0811 152.971 18.3518 152.514 18.5288C152.075 18.6991 151.574 18.8155 150.841 18.849C150.106 18.8826 149.872 18.8906 148 18.8906C146.129 18.8906 145.894 18.8826 145.159 18.849C144.426 18.8155 143.925 18.6991 143.487 18.5288C143.027 18.3558 142.61 18.0845 142.266 17.7339C141.916 17.3898 141.644 16.9733 141.471 16.5135C141.301 16.0754 141.184 15.5744 141.151 14.841C141.117 14.106 141.109 13.8713 141.109 12C141.109 10.1287 141.117 9.89391 141.151 9.15914C141.184 8.42559 141.301 7.92483 141.471 7.48645C141.644 7.02665 141.915 6.61016 142.266 6.26606C142.61 5.91545 143.027 5.64418 143.486 5.4712C143.925 5.30091 144.426 5.18447 145.159 5.15095C145.894 5.11744 146.129 5.10938 148 5.10938C149.871 5.10938 150.106 5.11744 150.841 5.15109C151.574 5.18447 152.075 5.30091 152.514 5.47102C152.973 5.64409 153.39 5.91539 153.734 6.26602C154.085 6.61018 154.356 7.02668 154.529 7.48645C154.699 7.92483 154.816 8.42559 154.849 9.15914C154.883 9.89391 154.891 10.1287 154.891 12C154.891 13.8713 154.883 14.1061 154.849 14.8409Z" fill="var(--fill-0, white)"/>
</g>
</g>
</svg>
