<svg preserveAspectRatio="none" width="100%" height="100%" overflow="visible" style="display: block;" viewBox="0 0 60 60" fill="none" xmlns="http://www.w3.org/2000/svg">
<g id="icon">
<circle id="Ellipse 23" opacity="0.3" cx="30" cy="30" r="29.5" stroke="var(--stroke-0, white)"/>
<g id="Vector">
<path d="M20.3035 26.8566C20.6071 27.0724 21.5223 27.7135 23.049 28.7795C24.5758 29.8455 25.7455 30.6663 26.558 31.242C26.6472 31.3051 26.8369 31.4422 27.127 31.6537C27.4172 31.8652 27.6583 32.0362 27.8502 32.1666C28.0422 32.2969 28.2743 32.4432 28.5467 32.6051C28.8191 32.7668 29.0758 32.8885 29.3169 32.969C29.558 33.0502 29.7812 33.0904 29.9865 33.0904H30.0135C30.2188 33.0904 30.4421 33.0502 30.6832 32.969C30.9242 32.8885 31.1811 32.7667 31.4533 32.6051C31.7255 32.443 31.9576 32.2969 32.1496 32.1666C32.3416 32.0362 32.5826 31.8652 32.8728 31.6537C33.1629 31.4421 33.3528 31.3051 33.4421 31.242C34.2634 30.6663 36.3528 29.2044 39.7098 26.8563C40.3616 26.3977 40.9061 25.8443 41.3436 25.1965C41.7813 24.549 42 23.8698 42 23.1592C42 22.5653 41.7878 22.057 41.3636 21.6342C40.9395 21.2113 40.4372 21 39.857 21H20.1428C19.4553 21 18.9263 21.2339 18.5557 21.7016C18.1852 22.1694 18 22.7542 18 23.4558C18 24.0226 18.2456 24.6368 18.7366 25.2979C19.2276 25.9592 19.75 26.4788 20.3035 26.8566Z" fill="var(--fill-0, #BB0000)"/>
<path d="M40.6605 28.3003C37.7322 30.2973 35.5088 31.8493 33.9911 32.956C33.4822 33.3337 33.0693 33.6285 32.7523 33.8398C32.4352 34.0512 32.0136 34.2671 31.4867 34.4874C30.96 34.708 30.4691 34.818 30.0137 34.818H29.9866C29.5312 34.818 29.0401 34.708 28.5134 34.4874C27.9867 34.2671 27.5647 34.0512 27.2478 33.8398C26.9309 33.6285 26.5179 33.3337 26.009 32.956C24.8036 32.0654 22.5849 30.5133 19.3528 28.3003C18.8438 27.9587 18.3929 27.5671 18 27.1263V37.8406C18 38.4347 18.2097 38.9428 18.6294 39.3656C19.049 39.7886 19.5536 40 20.1429 40H39.8572C40.4464 40 40.9509 39.7886 41.3706 39.3656C41.7904 38.9426 42 38.4348 42 37.8406V27.1263C41.616 27.558 41.1697 27.9496 40.6605 28.3003Z" fill="var(--fill-0, #BB0000)"/>
</g>
</g>
</svg>
