<svg preserveAspectRatio="none" width="100%" height="100%" overflow="visible" style="display: block;" viewBox="0 0 80 80" fill="none" xmlns="http://www.w3.org/2000/svg">
<g id="icon">
<circle id="Ellipse 21" cx="40" cy="40" r="40" fill="var(--fill-0, #006600)"/>
<g id="Vector">
<path d="M26.3125 25.9496C29.0308 25.9496 31.2344 23.7223 31.2344 20.9748C31.2344 18.2273 29.0308 16 26.3125 16C23.5942 16 21.3906 18.2273 21.3906 20.9748C21.3906 23.7223 23.5942 25.9496 26.3125 25.9496Z" fill="var(--fill-0, white)"/>
<path d="M21.5798 61.6258C21.605 62.392 22.2269 63 22.9853 63H29.6352C30.3955 63 31.0181 62.3892 31.0408 61.6211L31.4065 49.2601H21.1734L21.5798 61.6258ZM42.61 31.2542C43.6495 30.4213 43.8139 28.8898 42.9754 27.851C42.1942 26.8831 40.8097 26.6813 39.7898 27.3867L36.25 29.8347L30.6203 27.371H19.75C17.679 27.371 16 29.068 16 31.1613V43.509C16 45.0629 17.2463 46.3226 18.7836 46.3226H31.4905L31.8438 34.4778L36.8125 35.8992L42.61 31.2542Z" fill="var(--fill-0, white)"/>
<path d="M62.5938 22.1593H36.25C35.4734 22.1593 34.8438 22.7957 34.8438 23.5806V26.1215L35.943 26.6025L38.2017 25.0405C40.4159 23.5091 43.439 23.9282 45.1548 26.054C46.9864 28.3236 46.6279 31.6625 44.3571 33.4819L37.4316 39.0307L34.8438 38.2904V61.5786C34.8438 62.3636 35.4734 63 36.25 63H62.5938C63.3704 63 64 62.3636 64 61.5786V23.5806C64 22.7957 63.3704 22.1593 62.5938 22.1593ZM45.2695 53.5188C45.8187 54.0739 45.8187 54.9738 45.2695 55.5289C44.7205 56.0839 43.83 56.0841 43.2808 55.5289L42.8712 55.1149L42.4617 55.5288C41.9126 56.0839 41.0222 56.084 40.473 55.5288C39.9238 54.9737 39.9238 54.0738 40.473 53.5187L40.8825 53.1048L40.4706 52.6885C39.9214 52.1334 39.9214 51.2335 40.4706 50.6784C41.0197 50.1233 41.9102 50.1233 42.4593 50.6784L42.8713 51.0948L43.2903 50.6714C43.8393 50.1163 44.7298 50.1163 45.279 50.6714C45.8282 51.2265 45.8282 52.1264 45.279 52.6815L44.8601 53.1049L45.2695 53.5188ZM46.7048 38.6003L43.9789 41.2231C43.4358 41.7455 42.5828 41.7457 42.0396 41.2231L40.4692 39.712C39.9067 39.1707 39.8849 38.271 40.4204 37.7024C40.9561 37.1339 41.8461 37.1119 42.4085 37.6531L43.0093 38.2313L44.7655 36.5415C45.3281 36.0003 46.2183 36.0224 46.7537 36.5909C47.2892 37.1594 47.2673 38.059 46.7048 38.6003ZM57.4049 58.7833H49.9049C49.1283 58.7833 48.4986 58.1469 48.4986 57.3619C48.4986 56.5769 49.1283 55.9405 49.9049 55.9405H57.4049C58.1815 55.9405 58.8111 56.5769 58.8111 57.3619C58.8111 58.1469 58.1815 58.7833 57.4049 58.7833ZM57.4049 53.0978H49.9049C49.1283 53.0978 48.4986 52.4614 48.4986 51.6764C48.4986 50.8914 49.1283 50.255 49.9049 50.255H57.4049C58.1815 50.255 58.8111 50.8914 58.8111 51.6764C58.8111 52.4614 58.1815 53.0978 57.4049 53.0978ZM57.4049 44.5696H49.9049C49.1283 44.5696 48.4986 43.9332 48.4986 43.1482C48.4986 42.3632 49.1283 41.7268 49.9049 41.7268H57.4049C58.1815 41.7268 58.8111 42.3632 58.8111 43.1482C58.8111 43.9332 58.1815 44.5696 57.4049 44.5696ZM57.4049 38.8841H49.9049C49.1283 38.8841 48.4986 38.2477 48.4986 37.4627C48.4986 36.6777 49.1283 36.0413 49.9049 36.0413H57.4049C58.1815 36.0413 58.8111 36.6777 58.8111 37.4627C58.8111 38.2477 58.1815 38.8841 57.4049 38.8841ZM57.4049 31.1139H49.9049C49.1283 31.1139 48.4986 30.4775 48.4986 29.6925C48.4986 28.9076 49.1283 28.2712 49.9049 28.2712H57.4049C58.1815 28.2712 58.8111 28.9076 58.8111 29.6925C58.8111 30.4775 58.1815 31.1139 57.4049 31.1139Z" fill="var(--fill-0, white)"/>
</g>
</g>
</svg>
