<svg preserveAspectRatio="none" width="100%" height="100%" overflow="visible" style="display: block;" viewBox="0 0 80 80" fill="none" xmlns="http://www.w3.org/2000/svg">
<g id="icon">
<circle id="Ellipse 21" cx="40" cy="40" r="40" fill="var(--fill-0, #006600)"/>
<path id="Vector" fill-rule="evenodd" clip-rule="evenodd" d="M48.1247 48.6383L52.3409 55.5541C52.465 55.7576 52.5267 55.9945 52.518 56.2342C52.5093 56.4739 52.4306 56.7054 52.292 56.899C52.1535 57.0925 51.9614 57.2393 51.7405 57.3204C51.5197 57.4014 51.2801 57.413 51.0527 57.3538L48.8609 56.7826L48.3966 59.0453C48.3484 59.28 48.2326 59.4946 48.064 59.6615C47.8955 59.8283 47.682 59.9398 47.4509 59.9816C47.2199 60.0234 46.9818 59.9936 46.7675 59.8959C46.5532 59.7983 46.3724 59.6373 46.2483 59.4337L42.3143 52.982C42.4441 52.8819 42.5675 52.7733 42.6846 52.6561C43.2114 52.7698 43.7558 52.7694 44.2825 52.6548C44.8092 52.5402 45.3065 52.314 45.7424 51.9908C46.178 51.6674 46.5424 51.2541 46.8121 50.7778C47.0818 50.3015 47.2509 49.7727 47.3082 49.2255C47.6045 49.0673 47.879 48.8699 48.1247 48.6383ZM31.8767 48.6368C32.1223 48.8674 32.3963 49.0643 32.6918 49.2225C32.7487 49.77 32.9175 50.2991 33.1871 50.7758C33.4567 51.2524 33.8212 51.6659 34.257 51.9895C34.6928 52.3131 35.1902 52.5397 35.717 52.6545C36.2438 52.7693 36.7884 52.7699 37.3154 52.6561C37.4325 52.7733 37.5564 52.8819 37.6857 52.982L33.7517 59.4337C33.6275 59.6371 33.4466 59.7978 33.2323 59.8953C33.0181 59.9928 32.7802 60.0226 32.5492 59.9808C32.3183 59.939 32.1048 59.8276 31.9363 59.6609C31.7677 59.4942 31.6518 59.2798 31.6034 59.0453L31.1391 56.7826L28.9473 57.3538C28.7199 57.413 28.4803 57.4014 28.2595 57.3204C28.0386 57.2393 27.8465 57.0925 27.708 56.899C27.5694 56.7054 27.4907 56.4739 27.482 56.2342C27.4733 55.9945 27.535 55.7576 27.6591 55.5541L31.8767 48.6368ZM33.9202 39.1464V39.1144C33.9187 38.6807 34.0186 38.253 34.2115 37.8668C34.4045 37.4806 34.6849 37.147 35.0294 36.8939C35.374 36.6408 35.7727 36.4755 36.1924 36.4118C36.6121 36.348 37.0406 36.3876 37.4423 36.5273L37.4457 36.5283C37.4962 36.5459 37.5511 36.5454 37.6013 36.527C37.6515 36.5085 37.694 36.4731 37.722 36.4267L37.7283 36.4172C37.9534 36.0466 38.2619 35.7364 38.6282 35.5126C38.9944 35.2889 39.4078 35.1579 39.8337 35.1308C40.2596 35.1036 40.6857 35.181 41.0763 35.3566C41.467 35.5321 41.8108 35.8007 42.0792 36.1398C42.1874 36.2415 42.2648 36.3601 42.3192 36.4767C42.3809 36.5363 42.471 36.5573 42.5543 36.5283L42.5577 36.5273C42.9616 36.3867 43.3927 36.3473 43.8146 36.4125C44.2365 36.4776 44.6369 36.6454 44.9822 36.9017C45.3274 37.158 45.6074 37.4953 45.7985 37.8853C45.9896 38.2752 46.0862 38.7064 46.0803 39.1424L46.0798 39.1489C46.0797 39.203 46.0973 39.2555 46.1299 39.298C46.1625 39.3405 46.2082 39.3705 46.2596 39.3832L46.2723 39.3867C46.7006 39.4948 47.0961 39.7095 47.4235 40.0117C47.7509 40.3139 48.0001 40.6941 48.1489 41.1186C48.2977 41.5431 48.3414 41.9986 48.2762 42.4445C48.2109 42.8904 48.0388 43.3129 47.775 43.6744C47.7456 43.7199 47.7079 43.77 47.6585 43.825C47.6308 43.8629 47.6147 43.9084 47.6123 43.9556C47.6098 44.0028 47.6211 44.0497 47.6447 44.0904C47.6707 44.1229 47.6918 44.1534 47.7109 44.186C47.9471 44.5315 48.1017 44.9284 48.1625 45.3453C48.2232 45.7623 48.1885 46.1879 48.0611 46.5889C47.9289 47.0034 47.7013 47.3794 47.3975 47.6855C47.0937 47.9915 46.7224 48.2185 46.3149 48.3475L46.3115 48.3485C46.2607 48.3646 46.2167 48.3979 46.1868 48.443C46.1569 48.488 46.1429 48.542 46.1469 48.5963V48.5993C46.181 49.0576 46.1014 49.5173 45.9155 49.9359C45.7296 50.3545 45.4435 50.7184 45.0836 50.994C44.7236 51.2696 44.3015 51.448 43.8563 51.5127C43.411 51.5773 42.957 51.5262 42.5362 51.3641L42.4113 51.3195C42.3674 51.3117 42.3222 51.3167 42.281 51.3341C42.2398 51.3515 42.2043 51.3804 42.1786 51.4176L42.1771 51.4196C41.9312 51.7761 41.605 52.0669 41.2261 52.2676C40.8472 52.4684 40.4266 52.5731 39.9999 52.5731C39.5731 52.573 39.1526 52.4682 38.7737 52.2674C38.3949 52.0665 38.0688 51.7756 37.8229 51.4191L37.8214 51.4171C37.7955 51.3795 37.7596 51.3504 37.7179 51.3331C37.6761 51.3159 37.6305 51.3114 37.5863 51.32L37.4805 51.3576C37.0593 51.5233 36.6039 51.5774 36.1567 51.5148C35.7096 51.4522 35.2852 51.275 34.9231 50.9996C34.561 50.7242 34.273 50.3597 34.0859 49.9399C33.8988 49.5201 33.8187 49.0587 33.8531 48.5988V48.5963C33.8568 48.546 33.8449 48.4957 33.8192 48.4527C33.7934 48.4096 33.7551 48.376 33.7096 48.3565C33.6803 48.3477 33.6513 48.3377 33.6229 48.3264C33.2312 48.1916 32.8755 47.9654 32.5841 47.6658C32.2927 47.3662 32.0734 47.0014 31.9437 46.6003C31.814 46.1992 31.7774 45.7728 31.8368 45.3547C31.8961 44.9366 32.0498 44.5384 32.2857 44.1915C32.3063 44.1569 32.3283 44.1239 32.3562 44.0894C32.3808 44.0464 32.3917 43.9966 32.3874 43.947C32.3831 43.8974 32.3638 43.8504 32.3322 43.8125L32.3078 43.782C32.0199 43.426 31.8249 43.0012 31.7412 42.5474C31.6574 42.0935 31.6876 41.6253 31.8288 41.1866C31.97 40.7479 32.2177 40.3529 32.5487 40.0385C32.8797 39.7241 33.2833 39.5005 33.7218 39.3887L33.7404 39.3832C33.7922 39.3704 33.8382 39.34 33.8708 39.297C33.9035 39.254 33.9209 39.2009 33.9202 39.1464ZM29.27 49.2205H17.92C17.4108 49.2205 16.9224 49.0138 16.5624 48.6458C16.2023 48.2777 16 47.7786 16 47.2582V21.9624C16 21.4419 16.2023 20.9428 16.5624 20.5748C16.9224 20.2067 17.4108 20 17.92 20H62.08C62.5892 20 63.0776 20.2067 63.4376 20.5748C63.7977 20.9428 64 21.4419 64 21.9624V47.2582C64 47.7786 63.7977 48.2777 63.4376 48.6458C63.0776 49.0138 62.5892 49.2205 62.08 49.2205H50.7304L49.7332 47.5851C50.2067 46.4526 50.2243 45.175 49.7822 44.0293C50.2761 42.9524 50.3508 41.7238 49.9911 40.5927C49.6315 39.4615 48.8645 38.5125 47.8456 37.938C47.5802 36.8856 46.9643 35.9607 46.1038 35.3224C45.2443 34.684 44.1941 34.3716 43.1337 34.4388C42.2847 33.6254 41.1646 33.1727 40.0008 33.1726C38.8371 33.1725 37.7169 33.625 36.8678 34.4383C35.8068 34.3711 34.756 34.6836 33.896 35.3222C33.036 35.9607 32.4204 36.8854 32.1549 37.9375C31.1355 38.5118 30.3681 39.4609 30.0083 40.5923C29.6485 41.7238 29.7234 42.9527 30.2178 44.0298C29.7753 45.1752 29.7931 46.4529 30.2673 47.5851L29.27 49.2205ZM40 39.6996C42.2741 39.6996 44.1202 41.5864 44.1202 43.9106C44.1202 46.2349 42.2741 48.1217 40 48.1217C37.7259 48.1217 35.8798 46.2349 35.8798 43.9106C35.8798 41.5864 37.7259 39.6996 40 39.6996ZM40 41.662C41.2142 41.662 42.2002 42.6697 42.2002 43.9106C42.2002 45.1516 41.2142 46.1593 40 46.1593C38.7858 46.1593 37.7998 45.1516 37.7998 43.9106C37.7998 42.6697 38.7858 41.662 40 41.662ZM22.742 24.6821V24.0819C22.742 23.8217 22.8432 23.5721 23.0232 23.3881C23.2033 23.2041 23.4474 23.1007 23.702 23.1007C23.9566 23.1007 24.2008 23.2041 24.3809 23.3881C24.5609 23.5721 24.662 23.8217 24.662 24.0819V24.6821H26.1207C26.3753 24.6821 26.6194 24.7855 26.7995 24.9695C26.9795 25.1535 27.0807 25.4031 27.0807 25.6633C27.0807 25.9235 26.9795 26.1731 26.7995 26.3571C26.6194 26.5411 26.3753 26.6445 26.1207 26.6445H24.662V28.6368H24.7438C25.4918 28.6368 26.2092 28.9405 26.7381 29.4811C27.2669 30.0217 27.5641 30.7548 27.5641 31.5193V31.671C27.5641 32.4355 27.267 33.1687 26.7381 33.7094C26.2092 34.25 25.4919 34.5538 24.7438 34.5539H24.662V34.9995C24.662 35.2597 24.5609 35.5093 24.3809 35.6933C24.2008 35.8773 23.9566 35.9806 23.702 35.9806C23.4474 35.9806 23.2033 35.8773 23.0232 35.6933C22.8432 35.5093 22.742 35.2597 22.742 34.9995V34.5539H21.2834C21.0288 34.5539 20.7846 34.4506 20.6046 34.2666C20.4246 34.0826 20.3234 33.833 20.3234 33.5728C20.3234 33.3125 20.4246 33.063 20.6046 32.879C20.7846 32.695 21.0288 32.5916 21.2834 32.5916H22.742V30.5992H22.6607C21.9127 30.5991 21.1953 30.2953 20.6663 29.7547C20.1374 29.214 19.8401 28.4808 19.84 27.7162V27.5646C19.84 27.186 19.913 26.8111 20.0547 26.4614C20.1965 26.1116 20.4043 25.7939 20.6662 25.5262C20.9281 25.2585 21.2391 25.0462 21.5813 24.9014C21.9235 24.7566 22.2903 24.682 22.6607 24.6821H22.742ZM24.662 30.5992V32.5916H24.7438C24.9826 32.5915 25.2116 32.4944 25.3804 32.3218C25.5493 32.1491 25.6441 31.9151 25.6441 31.671V31.5193C25.6441 31.2753 25.5492 31.0412 25.3804 30.8687C25.2116 30.6961 24.9826 30.5992 24.7438 30.5992H24.662ZM30.4 31.5498C30.1454 31.5498 29.9012 31.4465 29.7212 31.2625C29.5411 31.0785 29.44 30.8289 29.44 30.5687C29.44 30.3084 29.5411 30.0589 29.7212 29.8749C29.9012 29.6909 30.1454 29.5875 30.4 29.5875H59.2C59.4546 29.5875 59.6988 29.6909 59.8788 29.8749C60.0589 30.0589 60.16 30.3084 60.16 30.5687C60.16 30.8289 60.0589 31.0785 59.8788 31.2625C59.6988 31.4465 59.4546 31.5498 59.2 31.5498H30.4ZM22.742 26.6445H22.6607C22.5425 26.6444 22.4254 26.6681 22.3161 26.7144C22.2068 26.7606 22.1075 26.8283 22.0238 26.9138C21.9402 26.9992 21.8738 27.1007 21.8286 27.2123C21.7833 27.324 21.76 27.4437 21.76 27.5646V27.7162C21.76 28.2249 22.1631 28.6368 22.6607 28.6368H22.742V26.6445ZM30.4 26.644C30.1454 26.644 29.9012 26.5406 29.7212 26.3566C29.5411 26.1726 29.44 25.923 29.44 25.6628C29.44 25.4026 29.5411 25.153 29.7212 24.969C29.9012 24.785 30.1454 24.6816 30.4 24.6816H59.2C59.4546 24.6816 59.6988 24.785 59.8788 24.969C60.0589 25.153 60.16 25.4026 60.16 25.6628C60.16 25.923 60.0589 26.1726 59.8788 26.3566C59.6988 26.5406 59.4546 26.644 59.2 26.644H30.4Z" fill="var(--fill-0, white)"/>
</g>
</svg>
