<svg preserveAspectRatio="none" width="100%" height="100%" overflow="visible" style="display: block;" viewBox="0 0 80 80" fill="none" xmlns="http://www.w3.org/2000/svg">
<g id="icon">
<circle id="Ellipse 21" cx="40" cy="40" r="40" fill="var(--fill-0, #006600)"/>
<g id="Vector">
<path d="M20.4062 44.3125H17.4062C16.6296 44.3125 16 44.9421 16 45.7188V62.5938C16 63.3704 16.6296 64 17.4062 64H21.8125V45.7188C21.8125 44.9421 21.1829 44.3125 20.4062 44.3125ZM58.2818 45.2507L52.1357 49.5543C52.2461 50.0174 52.302 50.4918 52.3022 50.9679C52.3022 54.3337 49.5736 57.0622 46.2078 57.0619L37.596 57.0613C36.8193 57.0612 36.1897 56.4316 36.1898 55.6549C36.1899 54.8783 36.8195 54.2487 37.5962 54.2488L46.2079 54.2494L46.2081 54.2493C48.0204 54.2493 49.4897 52.7802 49.4897 50.9678C49.4897 49.1555 48.0206 47.6863 46.2083 47.6863H38.4967C37.2951 47.6863 36.1246 47.3413 35.0928 46.7254C32.3703 45.1006 29.041 44.9489 26.1812 46.3208L24.625 47.0673V64H44.0391C47.3103 64 50.4145 62.7558 52.7801 60.4967L62.8758 50.8555C63.2311 50.5162 63.5139 50.1084 63.7071 49.6567C63.9004 49.205 64 48.7188 64 48.2275C64 45.2873 60.6903 43.5644 58.2818 45.2507ZM56.875 25.375C56.0984 25.375 55.4688 26.0046 55.4688 26.7812C55.4688 27.5579 56.0984 28.1875 56.875 28.1875H59.6875C60.4641 28.1875 61.0938 27.5579 61.0938 26.7812C61.0938 26.0046 60.4641 25.375 59.6875 25.375H56.875ZM56.6406 21.9053L59.0763 20.4991C59.7488 20.1108 59.9793 19.2507 59.5909 18.5781C59.2026 17.9056 58.3426 17.6751 57.67 18.0634L55.2344 19.4697C54.5618 19.858 54.3314 20.7181 54.7197 21.3906C55.108 22.0632 55.9681 22.2936 56.6406 21.9053ZM55.2344 34.0928L57.67 35.4991C58.3426 35.8874 59.2026 35.6569 59.5909 34.9844C59.9793 34.3118 59.7488 33.4517 59.0763 33.0634L56.6406 31.6572C55.9681 31.2689 55.108 31.4993 54.7197 32.1719C54.3314 32.8444 54.5618 33.7045 55.2344 34.0928ZM26.875 28.1875C27.6516 28.1875 28.2812 27.5579 28.2812 26.7812C28.2812 26.0046 27.6516 25.375 26.875 25.375H24.0625C23.2859 25.375 22.6562 26.0046 22.6562 26.7812C22.6562 27.5579 23.2859 28.1875 24.0625 28.1875H26.875ZM24.6737 20.4991L27.1094 21.9053C27.7819 22.2936 28.642 22.0632 29.0303 21.3906C29.4186 20.7181 29.1882 19.858 28.5156 19.4697L26.08 18.0634C25.4074 17.6751 24.5474 17.9056 24.1591 18.5781C23.7707 19.2507 24.0011 20.1108 24.6737 20.4991ZM26.08 35.4991L28.5156 34.0928C29.1882 33.7045 29.4186 32.8444 29.0303 32.1719C28.642 31.4993 27.7819 31.2689 27.1094 31.6572L24.6737 33.0634C24.0012 33.4517 23.7707 34.3118 24.1591 34.9844C24.5474 35.6569 25.4073 35.8874 26.08 35.4991Z" fill="var(--fill-0, white)"/>
<path d="M36.3672 41.7812C36.3672 43.5934 37.8363 45.0625 39.6484 45.0625H44.1016C45.9137 45.0625 47.3828 43.5934 47.3828 41.7812V40.8438H36.3672V41.7812ZM35.0178 35.0928C35.8753 35.7999 36.3672 36.7729 36.3672 37.7625V38.0312H40.4688V29.2387L38.0682 26.8382C37.519 26.289 37.519 25.3986 38.0682 24.8494C38.6173 24.3002 39.5077 24.3002 40.0569 24.8494L41.875 26.6675L43.6932 24.8494C44.2423 24.3002 45.1327 24.3002 45.6819 24.8494C46.2311 25.3986 46.2311 26.289 45.6819 26.8382L43.2812 29.2387V38.0312H47.3828V37.7625C47.3828 36.7729 47.8747 35.7999 48.7323 35.0928C51.226 33.0369 52.6562 30.0074 52.6562 26.7812C52.6562 20.8365 47.8198 16 41.875 16C35.9302 16 31.0938 20.8365 31.0938 26.7812C31.0938 30.0074 32.524 33.0369 35.0178 35.0928Z" fill="var(--fill-0, white)"/>
</g>
</g>
</svg>
