<svg preserveAspectRatio="none" width="100%" height="100%" overflow="visible" style="display: block;" viewBox="0 0 80 80" fill="none" xmlns="http://www.w3.org/2000/svg">
<g id="icon">
<circle id="Ellipse 21" cx="40" cy="40" r="40" fill="var(--fill-0, #006600)"/>
<g id="Vector">
<path d="M35.8182 57.9106C35.8182 57.7209 35.7619 57.5355 35.6563 57.3778C35.5507 57.2201 35.4006 57.0972 35.225 57.0246C35.0494 56.952 34.8561 56.933 34.6697 56.97C34.4832 57.007 34.312 57.0984 34.1775 57.2325L31.6061 59.7978C31.4258 59.9776 31.3246 60.2215 31.3246 60.4758C31.3246 60.7301 31.4258 60.974 31.6061 61.1538C31.7863 61.3336 32.0308 61.4347 32.2857 61.4347C32.5406 61.4347 32.7851 61.3337 32.9653 61.1539L35.5368 58.5886C35.6263 58.4997 35.6973 58.3941 35.7456 58.2777C35.7939 58.1613 35.8185 58.0365 35.8182 57.9106ZM33.2468 55.3453C33.2468 55.1556 33.1905 54.9702 33.0849 54.8125C32.9793 54.6548 32.8292 54.5319 32.6536 54.4593C32.4779 54.3867 32.2847 54.3677 32.0982 54.4047C31.9118 54.4417 31.7405 54.5331 31.6061 54.6672L29.0347 57.2325C28.8544 57.4123 28.7531 57.6562 28.7531 57.9105C28.7531 58.1648 28.8544 58.4087 29.0346 58.5885C29.2149 58.7683 29.4593 58.8694 29.7142 58.8694C29.9692 58.8694 30.2136 58.7684 30.3939 58.5886L32.9653 56.0232C33.0549 55.9344 33.1258 55.8288 33.1742 55.7124C33.2225 55.596 33.2471 55.4712 33.2468 55.3453ZM29.8182 53.635C29.8182 53.4454 29.7619 53.26 29.6563 53.1023C29.5507 52.9446 29.4006 52.8217 29.225 52.7491C29.0494 52.6765 28.8561 52.6575 28.6697 52.6945C28.4832 52.7315 28.312 52.8228 28.1775 52.957L26.4632 54.6672C26.283 54.847 26.1817 55.0909 26.1817 55.3452C26.1817 55.5995 26.283 55.8434 26.4632 56.0232C26.6434 56.203 26.8879 56.3041 27.1428 56.3041C27.3977 56.3041 27.6422 56.2031 27.8225 56.0232L29.5368 54.313C29.6263 54.2242 29.6973 54.1186 29.7456 54.0022C29.7939 53.8858 29.8185 53.761 29.8182 53.635Z" fill="var(--fill-0, white)"/>
<path d="M20.2857 44.2289H16.8571C16.3838 44.2289 16 44.6117 16 45.084V57.0555C16 57.5277 16.3838 57.9106 16.8571 57.9106H20.2857C20.7591 57.9106 21.1429 57.5277 21.1429 57.0555V45.084C21.1429 44.6117 20.7591 44.2289 20.2857 44.2289Z" fill="var(--fill-0, white)"/>
<path d="M43.376 50.5163L40.5283 52.8838C39.8614 53.4351 39.0026 53.7 38.1402 53.6205C37.2778 53.5411 36.4822 53.1237 35.9278 52.46C35.3733 51.7963 35.1053 50.9403 35.1825 50.0797C35.2597 49.2191 35.6757 48.4242 36.3395 47.8692L41.7468 43.3738H35.9925C35.9004 43.3738 35.8089 43.3886 35.7215 43.4176L28.5365 45.8069C28.2743 45.8942 27.9997 45.9387 27.7233 45.9386H27.7189L22.8571 45.93V55.3373L24.4688 55.3423C24.4685 54.9923 24.5375 54.6457 24.6717 54.3223C24.8059 53.9989 25.0028 53.7052 25.251 53.4578L26.9653 51.7476C27.2897 51.4236 27.6922 51.1883 28.1341 51.0645C28.576 50.9407 29.0424 50.9324 29.4885 51.0406C29.9345 51.1487 30.3451 51.3696 30.6807 51.6819C31.0164 51.9943 31.2658 52.3876 31.4049 52.824C31.8001 52.6867 32.222 52.6438 32.6368 52.6987C33.0516 52.7535 33.4478 52.9047 33.7934 53.1401C34.139 53.3754 34.4245 53.6884 34.6269 54.0537C34.8292 54.4191 34.9429 54.8268 34.9587 55.2439C35.6328 55.2691 36.2725 55.5477 36.7494 56.0237C37.2263 56.4996 37.5052 57.1379 37.5301 57.8104C38.1757 57.8339 38.7908 58.0901 39.2614 58.5315C39.732 58.9729 40.0262 59.5696 40.0895 60.2109L42.749 62.8641C42.9292 63.0439 43.1737 63.1449 43.4286 63.1449C43.6835 63.1449 43.928 63.0439 44.1082 62.864C44.2885 62.6842 44.3897 62.4403 44.3897 62.186C44.3897 61.9317 44.2884 61.6878 44.1082 61.508L40.251 57.66L41.4633 56.4508L46.1775 61.1539C46.2668 61.2429 46.3727 61.3135 46.4894 61.3617C46.606 61.4099 46.731 61.4347 46.8572 61.4347C46.9834 61.4347 47.1084 61.4099 47.225 61.3617C47.3416 61.3135 47.4476 61.2429 47.5368 61.1538C47.6261 61.0648 47.6968 60.9591 47.7451 60.8427C47.7934 60.7264 47.8183 60.6017 47.8183 60.4758C47.8183 60.3499 47.7934 60.2252 47.7451 60.1089C47.6968 59.9925 47.626 59.8868 47.5367 59.7978L41.9653 54.2396L43.1775 53.0304L49.6061 59.4437C49.6954 59.5327 49.8013 59.6033 49.9179 59.6515C50.0345 59.6997 50.1595 59.7245 50.2858 59.7245C50.412 59.7245 50.537 59.6997 50.6536 59.6515C50.7702 59.6033 50.8761 59.5327 50.9654 59.4436C51.0546 59.3546 51.1254 59.2489 51.1737 59.1325C51.222 59.0162 51.2469 58.8915 51.2469 58.7656C51.2469 58.6397 51.222 58.515 51.1737 58.3986C51.1254 58.2823 51.0546 58.1766 50.9653 58.0876L43.376 50.5163Z" fill="var(--fill-0, white)"/>
<path d="M38.1082 59.7978C38.0189 59.7087 37.913 59.6381 37.7964 59.5899C37.6798 59.5417 37.5548 59.5169 37.4286 59.5169C37.3024 59.5169 37.1774 59.5417 37.0608 59.5899C36.9442 59.6381 36.8382 59.7087 36.749 59.7978L35.0347 61.508C34.8544 61.6878 34.7531 61.9317 34.7531 62.186C34.7531 62.4403 34.8544 62.6842 35.0346 62.864C35.2149 63.0439 35.4593 63.1449 35.7142 63.1449C35.9692 63.1449 36.2136 63.0439 36.3939 62.8641L38.1082 61.1539C38.1974 61.0648 38.2683 60.9591 38.3166 60.8428C38.3649 60.7265 38.3898 60.6018 38.3898 60.4758C38.3898 60.3499 38.3649 60.2252 38.3166 60.1089C38.2683 59.9925 38.1974 59.8868 38.1082 59.7978ZM53.9945 45.7846L48.2075 43.6853C47.3266 43.3676 46.3778 43.285 45.4551 43.4459C44.5323 43.6067 43.6678 44.0053 42.9471 44.6022L37.4369 49.1831C37.2798 49.3137 37.1501 49.4739 37.055 49.6545C36.96 49.8352 36.9016 50.0327 36.8831 50.2359C36.8646 50.4391 36.8863 50.6439 36.9472 50.8386C37.008 51.0334 37.1067 51.2143 37.2376 51.3711C37.3686 51.5278 37.5291 51.6572 37.7102 51.752C37.8913 51.8468 38.0893 51.9051 38.293 51.9236C38.4966 51.9421 38.7019 51.9203 38.8972 51.8596C39.0924 51.7989 39.2738 51.7005 39.4309 51.5699L43.4812 48.2027L44.0347 48.7549C44.8277 49.5475 45.8861 50.0201 47.0069 50.082C48.1277 50.1439 49.232 49.7909 50.1079 49.0905L50.6074 48.6918L51.6784 50.0273L51.1787 50.426C50.02 51.3532 48.5684 51.839 47.0835 51.7965L51.497 56.1995L54.393 56.1923C54.8986 56.1916 55.3926 56.0417 55.813 55.7616L57.1429 54.8772V45.9391H54.8735C54.5737 45.9393 54.2761 45.887 53.9945 45.7846Z" fill="var(--fill-0, white)"/>
<path d="M63.1429 44.2289H59.7143C59.2409 44.2289 58.8571 44.6117 58.8571 45.084V57.0555C58.8571 57.5277 59.2409 57.9106 59.7143 57.9106H63.1429C63.6162 57.9106 64 57.5277 64 57.0555V45.084C64 44.6117 63.6162 44.2289 63.1429 44.2289Z" fill="var(--fill-0, white)"/>
<path d="M39.5543 62.0956C39.4823 62.1898 39.4042 62.2792 39.3204 62.3631L38.2121 63.4687L38.4632 63.7192C38.5525 63.8082 38.6585 63.8788 38.7751 63.927C38.8917 63.9752 39.0167 64 39.1429 64C39.2691 64 39.3941 63.9752 39.5107 63.927C39.6273 63.8788 39.7333 63.8082 39.8225 63.7191C39.9118 63.6301 39.9826 63.5244 40.0309 63.408C40.0792 63.2917 40.104 63.167 40.104 63.0411C40.104 62.9152 40.0791 62.7905 40.0308 62.6742C39.9825 62.5578 39.9117 62.4521 39.8225 62.3631L39.5543 62.0956ZM51.4703 27.9715L51.674 27.5652L40 22.9067L28.326 27.5652L28.5297 27.9715H51.4703ZM42.5714 22.0909V20.2755C42.5708 19.7452 42.4056 19.2281 42.0987 18.7952C41.7918 18.3622 41.3581 18.0346 40.8571 17.8573V16H39.1429V17.8573C38.6419 18.0346 38.2082 18.3622 37.9013 18.7952C37.5944 19.2281 37.4292 19.7452 37.4286 20.2755V22.0909L40 21.0648L42.5714 22.0909ZM52 38.2327H51.1429V29.6817H49.4286V38.2327H47.7143V29.6817H46V38.2327H44.2857V29.6817H42.5714V38.2327H40.8571V29.6817H39.1429V38.2327H37.4286V29.6817H35.7143V38.2327H34V29.6817H32.2857V38.2327H30.5714V29.6817H28.8571V38.2327H28V39.9429H52V38.2327Z" fill="var(--fill-0, white)"/>
</g>
</g>
</svg>
